<?xml version="1.0" encoding="UTF-8"?>
<svg id="Layer_2" data-name="Layer 2" xmlns="http://www.w3.org/2000/svg" viewBox="0 0 2088.85 410.67">
  <defs>
    <style>
      .cls-1 {
        fill: #f9f9f9;
      }
    </style>
  </defs>
  <g id="Layer_1-2" data-name="Layer 1">
    <path class="cls-1" d="M725.48,85.19v27.7h-109.1v218.55h-27.7V112.9h-109.45v-27.7h246.25ZM986.11,85.19h27.7v205.21c0,22.92-18.13,41.04-41.04,41.04h-164.17c-22.92,0-41.04-18.13-41.04-41.04V85.19h27.7v205.21c0,7.18,6.15,13.34,13.34,13.34h164.17c7.18,0,13.34-6.16,13.34-13.34V85.19ZM1068.9,84.85h27.7v218.89h218.55v27.7h-246.25V84.85ZM1352.45,85.19h27.7v246.25h-27.7V85.19ZM1649.66,85.53c22.92,0,41.04,18.47,41.04,41.04v72.17c0,22.57-18.13,41.04-41.04,41.04h-164.17c-3.08,0-8.21-.68-13.34-1.37v93.03h-27.7V85.53h205.21ZM1663,126.58c0-7.18-6.16-13.34-13.34-13.34h-164.17c-7.18,0-13.34,6.16-13.34,13.34v72.17c0,7.18,6.16,13,13.34,13h164.17c7.18,0,13.34-5.81,13.34-13v-72.17ZM1928.08,85.19c28.05,0,50.96,22.57,50.96,50.62v195.63h-53.7v-79.35h-139.54v79.35h-53.01v-195.63c0-28.05,22.57-50.62,50.62-50.62h144.67ZM1925.35,198.74v-60.19h-139.54v60.19h139.54ZM2035.5,85.19h53.36v246.25h-53.36V85.19ZM177.88,141.46l-31.08-31.07v62.15s-62.14,0-62.14,0l31.08,31.07c17.16,17.16,44.99,17.15,62.15,0h0c17.16-17.16,17.15-44.99,0-62.15ZM272.27,203.27l31.07-31.08h-62.15s0-62.14,0-62.14l-31.07,31.08c-17.16,17.16-17.15,44.99,0,62.15h0c17.16,17.16,44.99,17.15,62.15,0ZM209.82,297.67l31.08,31.07v-62.15s62.14,0,62.14,0l-31.08-31.07c-17.16-17.16-44.99-17.15-62.15,0h0c-17.16,17.16-17.15,44.99,0,62.15ZM115.43,235.85l-31.07,31.08h62.15s0,62.14,0,62.14l31.07-31.08c17.16-17.16,17.15-44.99,0-62.15h0c-17.16-17.16-44.99-17.15-62.15,0ZM157.49,396.01L16.13,254.65c-21.51-21.51-21.51-56.38,0-77.88L192.89,0l180.02,180.02c19.71,19.71,19.71,51.66,0,71.37l-144.61,144.61c-19.55,19.55-51.26,19.55-70.81,0ZM364.2,187.78L192.89,16.48,26.26,183.11c-18,18-18,47.18,0,65.18l136.43,136.43c16.68,16.68,43.72,16.68,60.4,0l141.1-141.1c15.42-15.42,15.42-40.42,0-55.84"/>
  </g>
</svg>